<svg width="161" height="161" viewBox="0 0 161 161" fill="none" xmlns="http://www.w3.org/2000/svg">
<rect x="161" width="161" height="161" rx="80.5" transform="rotate(90 161 0)" fill="white" fill-opacity="0.18"/>
<g clip-path="url(#clip0_2_2863)">
<rect x="111.125" y="49.875" width="61.25" height="61.25" transform="rotate(90 111.125 49.875)" fill="url(#paint0_linear_2_2863)"/>
<path d="M80.5 133C66.5761 133 53.2226 127.469 43.3769 117.623C33.5312 107.777 28 94.4239 28 80.5C28 66.5761 33.5312 53.2226 43.3769 43.3769C53.2226 33.5312 66.5761 28 80.5 28C94.4239 28 107.777 33.5312 117.623 43.3769C127.469 53.2226 133 66.5761 133 80.5C133 94.4239 127.469 107.777 117.623 117.623C107.777 127.469 94.4239 133 80.5 133V133ZM99.5772 72.5594C99.9265 72.0687 100.134 71.4914 100.177 70.8907C100.22 70.2899 100.097 69.6889 99.8211 69.1535C99.5453 68.6181 99.1274 68.1689 98.6133 67.8552C98.0991 67.5415 97.5085 67.3754 96.9062 67.375L64.0937 67.375C63.4915 67.3754 62.9009 67.5415 62.3867 67.8552C61.8726 68.1689 61.4547 68.6181 61.1789 69.1535C60.903 69.6889 60.7799 70.2899 60.8229 70.8907C60.8659 71.4914 61.0735 72.0687 61.4228 72.5594L77.8291 95.5281C78.1326 95.9535 78.5333 96.3002 78.9979 96.5394C79.4625 96.7786 79.9775 96.9034 80.5 96.9034C81.0225 96.9034 81.5375 96.7786 82.0021 96.5394C82.4667 96.3002 82.8674 95.9535 83.1709 95.5281L99.5772 72.5594V72.5594Z" fill="black"/>
</g>
<defs>
<linearGradient id="paint0_linear_2_2863" x1="111.125" y1="49.875" x2="172.375" y2="111.125" gradientUnits="userSpaceOnUse">
<stop stop-color="#F9EC7D"/>
<stop offset="1" stop-color="#F5B100"/>
</linearGradient>
<clipPath id="clip0_2_2863">
<rect width="105" height="105" fill="white" transform="matrix(0 1 -1 0 133 28)"/>
</clipPath>
</defs>
</svg>
