<svg width="161" height="161" viewBox="0 0 161 161" fill="none" xmlns="http://www.w3.org/2000/svg">
<rect width="161" height="161" rx="80.5" fill="white" fill-opacity="0.18"/>
<g clip-path="url(#clip0_2_2873)">
<rect x="49.875" y="49.875" width="61.25" height="61.25" fill="url(#paint0_linear_2_2873)"/>
<path d="M133 80.5C133 94.4239 127.469 107.777 117.623 117.623C107.777 127.469 94.4239 133 80.5 133C66.5761 133 53.2226 127.469 43.3769 117.623C33.5312 107.777 28 94.4239 28 80.5C28 66.5761 33.5312 53.2226 43.3769 43.3769C53.2226 33.5312 66.5761 28 80.5 28C94.4239 28 107.777 33.5312 117.623 43.3769C127.469 53.2226 133 66.5761 133 80.5ZM72.5594 61.4228C72.0687 61.0735 71.4914 60.8659 70.8907 60.8229C70.2899 60.7799 69.6889 60.903 69.1535 61.1789C68.6181 61.4547 68.1689 61.8726 67.8552 62.3867C67.5415 62.9009 67.3754 63.4915 67.375 64.0938L67.375 96.9062C67.3754 97.5085 67.5415 98.0991 67.8552 98.6133C68.1689 99.1274 68.6181 99.5453 69.1535 99.8211C69.6889 100.097 70.2899 100.22 70.8907 100.177C71.4914 100.134 72.0687 99.9265 72.5594 99.5772L95.5281 83.1709C95.9535 82.8674 96.3002 82.4667 96.5394 82.0021C96.7786 81.5375 96.9034 81.0225 96.9034 80.5C96.9034 79.9775 96.7786 79.4625 96.5394 78.9979C96.3002 78.5333 95.9535 78.1326 95.5281 77.8291L72.5594 61.4228Z" fill="black"/>
</g>
<defs>
<linearGradient id="paint0_linear_2_2873" x1="49.875" y1="49.875" x2="111.125" y2="111.125" gradientUnits="userSpaceOnUse">
<stop stop-color="#F9EC7D"/>
<stop offset="1" stop-color="#F5B100"/>
</linearGradient>
<clipPath id="clip0_2_2873">
<rect width="105" height="105" fill="white" transform="translate(28 28)"/>
</clipPath>
</defs>
</svg>
